<svg id="katman_1" data-name="katman 1" xmlns="http://www.w3.org/2000/svg" viewBox="0 0 371.81 276.13"><defs><style>.cls-1{fill:#fff;}</style></defs><polygon class="cls-1" points="319.83 269.13 319.83 142.55 291.52 122.03 251.23 139.96 251.23 269.13 240.53 269.13 240.53 121.56 204.16 103.55 204.16 0 157.72 30.44 157.72 269.13 146.5 269.13 146.5 97.89 104.23 75.12 73.66 94.52 73.66 130.15 51.98 149.09 51.98 269.13 0 269.13 0 276.13 58.98 276.13 58.98 152.27 80.66 133.33 80.66 98.37 100.87 85.54 100.87 276.13 107.87 276.13 107.87 85.04 139.5 102.07 139.5 276.13 164.72 276.13 164.72 34.22 197.16 12.96 197.16 276.13 204.16 276.13 204.16 111.36 233.53 125.91 233.53 276.13 258.23 276.13 258.23 144.51 287.6 131.44 287.6 276.13 294.6 276.13 294.6 132.91 312.83 146.12 312.83 276.13 371.81 276.13 371.81 269.13 319.83 269.13"/></svg>