<svg id="katman_1" data-name="katman 1" xmlns="http://www.w3.org/2000/svg" viewBox="0 0 370.81 381.97"><defs><style>.cls-1{fill:#fff;}</style></defs><polygon class="cls-1" points="320.83 220.41 320.83 134.56 291.2 113.09 249.23 131.76 249.23 220.41 241.53 220.41 241.53 113.41 205.16 95.39 205.16 0 155.72 32.4 155.72 220.41 147.5 220.41 147.5 89.77 103.67 66.16 71.66 86.47 71.66 122.25 49.98 141.18 49.98 220.41 0 220.41 0 230.41 59.98 230.41 59.98 145.72 81.66 126.79 81.66 91.97 98.87 81.05 98.87 230.41 108.87 230.41 108.87 80.33 137.5 95.75 137.5 230.41 165.72 230.41 165.72 37.81 195.16 18.51 195.16 230.41 205.16 230.41 205.16 106.55 231.53 119.61 231.53 230.41 259.23 230.41 259.23 138.26 285.6 126.52 285.6 230.41 295.6 230.41 295.6 128.63 310.83 139.66 310.83 230.41 370.81 230.41 370.81 220.41 320.83 220.41"/><path class="cls-1" d="M712.25,440.67c1-2.65,2.14-5.56,3.4-8.65l3-7.3h21.49L747,442.21h9.92L733.3,381.75l-.12-.32H726l-24.45,60.78h10.14Zm9.91-25.13q2.17-5.43,4.18-10.41l3.13-7.76.6,1.55,0,.1,2.49,6.39q1.25,3.19,2.53,6.43c.46,1.16.95,2.4,1.44,3.7Z" transform="translate(-701.25 -122.28)"/><path class="cls-1" d="M761.42,429.91h-.54L764,433.8c5.22,6.41,12.43,9.66,21.43,9.66a29.92,29.92,0,0,0,15.7-4.4l.18-.12a32.33,32.33,0,0,0,3.9-3.48,21,21,0,0,0,3.47-4.95,30,30,0,0,0,2.37-6.58A37.9,37.9,0,0,0,812,415l-.28-5.31H782.39v9.19h20.12a26.23,26.23,0,0,1-1.08,4.68,16.22,16.22,0,0,1-2.95,5.41c-3,3.55-7.15,5.28-12.78,5.28-6.29,0-11-2.11-14.51-6.47-3.33-3.89-5-9.28-5-16,0-6.5,1.72-11.86,5.12-16a17.49,17.49,0,0,1,14.18-6.45,17.3,17.3,0,0,1,11,3.52c2.84,2.26,4.75,5.92,5.67,10.85l.36,1.94h9.16l-.4-2.72a31.89,31.89,0,0,0-3-10,22,22,0,0,0-5.94-7.28,26.27,26.27,0,0,0-7.73-4.1,28.5,28.5,0,0,0-9.11-1.45c-8.84,0-16,3.27-21.27,9.74l-3.06,3.88h.41a34.77,34.77,0,0,0-4.56,18A35.62,35.62,0,0,0,761.42,429.91Z" transform="translate(-701.25 -122.28)"/><path class="cls-1" d="M843.58,381.43h-7.2l-24.45,60.78h10.14l.58-1.54c1-2.65,2.14-5.56,3.4-8.65l3-7.3h21.49l6.92,17.48h9.92l-23.65-60.46Zm3.4,34.11H832.57q2.17-5.43,4.18-10.41l3.13-7.76.6,1.55,0,.1,2.49,6.39q1.25,3.19,2.53,6.43C846,413,846.48,414.24,847,415.54Z" transform="translate(-701.25 -122.28)"/><path class="cls-1" d="M923.59,411.78c0-8.7-2.32-16-6.91-21.79-5.32-6.51-12.42-9.81-21.11-9.81s-15.87,3.31-21.21,9.83c-4.57,5.74-6.89,13.06-6.89,21.76s2.32,16.11,6.91,21.86c5.32,6.51,12.45,9.81,21.19,9.81a26.06,26.06,0,0,0,21.13-9.83C921.27,427.88,923.59,420.53,923.59,411.78Zm-9.19,0c0,6.57-1.63,12-4.84,16.08-3.44,4.31-8,6.41-14,6.41s-10.62-2.09-14.06-6.39c-3.22-4.11-4.86-9.52-4.86-16.09s1.63-11.95,4.83-16c3.49-4.32,8.1-6.42,14.08-6.42s10.5,2.1,14,6.4C912.78,399.83,914.41,405.22,914.41,411.78Z" transform="translate(-701.25 -122.28)"/><path class="cls-1" d="M980.94,423.92a37.82,37.82,0,0,0,.92-8.91l-.28-5.31H952.24v9.19h20.12a26.36,26.36,0,0,1-1.08,4.68,16.26,16.26,0,0,1-2.95,5.41c-3,3.55-7.15,5.28-12.78,5.28-6.29,0-11-2.11-14.51-6.47-3.33-3.89-5-9.28-5-16,0-6.5,1.72-11.86,5.12-16a18.9,18.9,0,0,1,25.21-2.93c2.84,2.26,4.75,5.92,5.67,10.85l.36,1.94h9.16l-.4-2.72a31.88,31.88,0,0,0-3-10,22,22,0,0,0-5.94-7.28,26.26,26.26,0,0,0-7.73-4.1,28.48,28.48,0,0,0-9.11-1.45c-8.84,0-16,3.27-21.27,9.74L931,393.8h.41a34.76,34.76,0,0,0-4.56,18,35.63,35.63,0,0,0,4.44,18.13h-.54l3.16,3.88c5.22,6.41,12.42,9.66,21.43,9.66a29.92,29.92,0,0,0,15.7-4.4l.18-.12a32.24,32.24,0,0,0,3.9-3.48,21.05,21.05,0,0,0,3.47-4.95A30,30,0,0,0,980.94,423.92Z" transform="translate(-701.25 -122.28)"/><polygon class="cls-1" points="284.25 259.15 284.25 319.93 324.13 319.93 324.13 310.74 293.44 310.74 293.44 259.15 284.25 259.15"/><path class="cls-1" d="M1062.34,418.54c0,10.73-4.43,15.72-13.94,15.72s-13.94-5-13.94-15.72V381.43h-9.19v37.11c0,7.49,1.87,13.5,5.56,17.88,4.08,4.66,10,7,17.56,7s13.43-2.37,17.57-7a21.07,21.07,0,0,0,4.25-7.87,35.18,35.18,0,0,0,1.31-10V381.43h-9.19Z" transform="translate(-701.25 -122.28)"/><path class="cls-1" d="M795.45,368.32v-.5h-5l0,.46c-.21,2.26-1.66,4.91-5.1,4.91-3.2,0-4.73-2.55-5.1-4.94l-.07-.42h-5v.5c0,4.67,2.65,10.13,10.13,10.13C791.38,378.46,795.45,374.38,795.45,368.32Z" transform="translate(-701.25 -122.28)"/><path class="cls-1" d="M964.58,368.32v-.5h-5l0,.46c-.21,2.26-1.66,4.91-5.1,4.91-3.2,0-4.73-2.55-5.1-4.94l-.07-.42h-5v.5c0,4.67,2.65,10.13,10.13,10.13C960.51,378.46,964.58,374.38,964.58,368.32Z" transform="translate(-701.25 -122.28)"/><path class="cls-1" d="M804.37,469.44h-6L798,470q-2.76,4-5.5,7.91L788,484.33l-10.31-14.88h-6l1.34,2,3.07,4.45,3.27,4.71q1.64,2.36,3.24,4.71,1.48,2.18,2.87,4.18v14.1h5v-14.1l13.58-19.62Z" transform="translate(-701.25 -122.28)"/><path class="cls-1" d="M813.85,469.44h-3.93l-13.58,33.77-.14.34h5.52l.3-.81c.59-1.57,1.24-3.21,1.92-4.88l1.7-4.18h12.25l3.9,9.87h5.4l-13.28-34ZM816,488.69h-8.4q1.25-3.13,2.41-6l1.86-4.59.42,1.09,1.42,3.66q.7,1.8,1.43,3.63Q815.52,487.54,816,488.69Z" transform="translate(-701.25 -122.28)"/><path class="cls-1" d="M851.81,471.93a11.81,11.81,0,0,0-7.86-2.49H829.89v34.11h5V489.92h9a11.59,11.59,0,0,0,6.18-1.48l.28-.16c.23-.12.45-.25.65-.37l3.11-1.8h-1a11,11,0,0,0-1.2-14.17Zm-1.75,7.79a4.6,4.6,0,0,1-1.66,3.82,6.72,6.72,0,0,1-4.45,1.37h-9.1V474.44h9.1C848.18,474.44,850.06,476.07,850.06,479.72Z" transform="translate(-701.25 -122.28)"/><rect class="cls-1" x="156.58" y="347.16" width="5" height="34.11"/><path class="cls-1" d="M894.43,485.4v5H905.8a15,15,0,0,1-.62,2.76,9.25,9.25,0,0,1-1.68,3.08c-1.7,2-4.08,3-7.28,3a9.88,9.88,0,0,1-8.26-3.68c-1.89-2.21-2.86-5.27-2.86-9.1a13.78,13.78,0,0,1,2.91-9.06,9.72,9.72,0,0,1,17.59,4.51l.19,1h5l-.21-1.43a17.89,17.89,0,0,0-1.7-5.59,12.31,12.31,0,0,0-3.33-4.08,14.83,14.83,0,0,0-4.34-2.3,16,16,0,0,0-5.11-.81,14.67,14.67,0,0,0-11.93,5.46l-1.61,2h.2a19.46,19.46,0,0,0-2.65,10.24,19.94,19.94,0,0,0,2.57,10.33h-.27l1.66,2a14.73,14.73,0,0,0,12,5.42,16.93,16.93,0,0,0,8.91-2.53,18,18,0,0,0,2.19-2,11.83,11.83,0,0,0,1.94-2.77,16.93,16.93,0,0,0,1.33-3.7,21.63,21.63,0,0,0,.52-5.05l-.15-2.85Z" transform="translate(-701.25 -122.28)"/><path class="cls-1" d="M937.21,494.59l-2.64-6.11a9.44,9.44,0,0,0,6-9.29c0-4.45-1.94-9.76-11.16-9.76H915.26v34.11h5v-14h9.2l6.09,14h5.52l-.75-1.74Q938.88,498.43,937.21,494.59ZM934,483l0,0a7.45,7.45,0,0,1-4.68,1.41h-9v-10h9.41c5.27,0,5.94,2.5,5.94,4.67A4.9,4.9,0,0,1,934,483Z" transform="translate(-701.25 -122.28)"/><path class="cls-1" d="M965.68,490.29c0,6.12-2.53,9-8,9s-8-2.85-8-9V469.44h-5v20.85c0,4.2,1,7.58,3.11,10,2.28,2.61,5.6,3.93,9.84,3.93s7.53-1.32,9.84-3.94a11.78,11.78,0,0,0,2.38-4.41,19.76,19.76,0,0,0,.73-5.62V469.44h-5Z" transform="translate(-701.25 -122.28)"/><path class="cls-1" d="M997.2,471.93a11.81,11.81,0,0,0-7.87-2.49H975.28v34.11h5V489.92h9a11.89,11.89,0,0,0,6.18-1.48l.28-.16c.23-.12.45-.25.65-.37l3.11-1.8h-1a11,11,0,0,0-1.2-14.17Zm-1.75,7.79a4.6,4.6,0,0,1-1.66,3.82,6.72,6.72,0,0,1-4.45,1.37h-9.1V474.44h9.1C993.57,474.44,995.45,476.07,995.45,479.72Z" transform="translate(-701.25 -122.28)"/><rect class="cls-1" x="0.5" y="363.79" width="68.92" height="4"/><rect class="cls-1" x="301.19" y="363.79" width="68.92" height="4"/></svg>